<svg width="228" height="95" viewBox="0 0 228 95" fill="none" xmlns="http://www.w3.org/2000/svg">
<rect opacity="0.5" x="131.818" y="76.5" width="60.6061" height="18" fill="#5E5BD8"/>
<path opacity="0.5" d="M40.9092 25.5H65.1516V79.5H40.9092V25.5Z" fill="#5E5BD8"/>
<path d="M60.3214 62C58.9454 62 57.8574 61.584 57.0574 60.752C56.2894 59.888 55.9054 58.768 55.9054 57.392V36.08H59.8414V56.432C59.8414 58 60.5934 58.784 62.0974 58.784H64.8334V62H60.3214ZM78.7853 62.48C77.1853 62.48 75.6173 62.368 74.0813 62.144C72.5773 61.952 71.3133 61.648 70.2893 61.232V57.728C71.5053 58.208 72.8013 58.56 74.1773 58.784C75.5533 59.008 76.8653 59.12 78.1133 59.12C80.4493 59.12 82.1933 58.896 83.3453 58.448C84.5293 57.968 85.1213 56.944 85.1213 55.376C85.1213 54.256 84.8173 53.424 84.2093 52.88C83.6333 52.304 82.8013 51.84 81.7133 51.488C80.6253 51.104 79.3133 50.656 77.7773 50.144C76.3693 49.664 75.0413 49.136 73.7933 48.56C72.5453 47.952 71.5373 47.184 70.7693 46.256C70.0013 45.328 69.6173 44.112 69.6173 42.608C69.6173 40.336 70.4493 38.608 72.1133 37.424C73.8093 36.208 76.3213 35.6 79.6493 35.6C81.0573 35.6 82.4493 35.712 83.8253 35.936C85.2013 36.16 86.3533 36.432 87.2813 36.752V40.208C86.2253 39.792 85.0733 39.488 83.8253 39.296C82.6093 39.072 81.4093 38.96 80.2253 38.96C78.0493 38.96 76.3853 39.2 75.2333 39.68C74.1133 40.128 73.5533 41.072 73.5533 42.512C73.5533 43.44 73.8413 44.192 74.4173 44.768C75.0253 45.312 75.8733 45.792 76.9613 46.208C78.0813 46.592 79.4253 47.04 80.9933 47.552C82.5613 48.064 83.9533 48.64 85.1693 49.28C86.3853 49.888 87.3293 50.672 88.0013 51.632C88.7053 52.56 89.0573 53.792 89.0573 55.328C89.0573 57.92 88.1133 59.76 86.2253 60.848C84.3373 61.936 81.8573 62.48 78.7853 62.48ZM105.228 62V45.248C105.228 43.808 105.084 42.624 104.796 41.696C104.508 40.768 103.916 40.08 103.02 39.632C102.156 39.184 100.828 38.96 99.0357 38.96C98.0117 38.96 96.8917 39.072 95.6757 39.296C94.4917 39.52 93.4037 39.824 92.4117 40.208V36.944C93.3717 36.56 94.5077 36.24 95.8197 35.984C97.1317 35.728 98.4437 35.6 99.7557 35.6C103.052 35.6 105.436 36.336 106.908 37.808C108.412 39.248 109.164 41.584 109.164 44.816V62H105.228ZM120.417 62L114.465 36.08H118.497L122.769 56.48L128.241 39.344V36.08H131.169L137.025 56.48L141.249 36.08H145.233L139.329 62H135.393L130.065 43.76L124.305 62H120.417ZM158.707 62.48C157.107 62.48 155.539 62.368 154.003 62.144C152.499 61.952 151.235 61.648 150.211 61.232V57.728C151.427 58.208 152.723 58.56 154.099 58.784C155.475 59.008 156.787 59.12 158.035 59.12C160.371 59.12 162.115 58.896 163.267 58.448C164.451 57.968 165.043 56.944 165.043 55.376C165.043 54.256 164.739 53.424 164.131 52.88C163.555 52.304 162.723 51.84 161.635 51.488C160.547 51.104 159.235 50.656 157.699 50.144C156.291 49.664 154.963 49.136 153.715 48.56C152.467 47.952 151.459 47.184 150.691 46.256C149.923 45.328 149.539 44.112 149.539 42.608C149.539 40.336 150.371 38.608 152.035 37.424C153.731 36.208 156.243 35.6 159.571 35.6C160.979 35.6 162.371 35.712 163.747 35.936C165.123 36.16 166.275 36.432 167.203 36.752V40.208C166.147 39.792 164.995 39.488 163.747 39.296C162.531 39.072 161.331 38.96 160.147 38.96C157.971 38.96 156.307 39.2 155.155 39.68C154.035 40.128 153.475 41.072 153.475 42.512C153.475 43.44 153.763 44.192 154.339 44.768C154.947 45.312 155.795 45.792 156.883 46.208C158.003 46.592 159.347 47.04 160.915 47.552C162.483 48.064 163.875 48.64 165.091 49.28C166.307 49.888 167.251 50.672 167.923 51.632C168.627 52.56 168.979 53.792 168.979 55.328C168.979 57.92 168.035 59.76 166.147 60.848C164.259 61.936 161.779 62.48 158.707 62.48ZM157.886 31.712V27.2H154.094V24.368H160.718V28.88H171.23L171.038 31.712H157.886ZM183.71 62.48C181.726 62.48 179.87 62.304 178.142 61.952C176.414 61.568 174.958 61.136 173.774 60.656V47.6H183.278L183.47 50.816H177.71V58.16C178.542 58.448 179.47 58.688 180.494 58.88C181.55 59.04 182.59 59.12 183.614 59.12C185.694 59.12 187.342 58.8 188.558 58.16C189.806 57.52 190.702 56.464 191.246 54.992C191.822 53.52 192.11 51.552 192.11 49.088C192.11 46.528 191.806 44.512 191.198 43.04C190.622 41.568 189.63 40.528 188.222 39.92C186.846 39.28 184.958 38.96 182.558 38.96C181.182 38.96 179.758 39.056 178.286 39.248C176.846 39.44 175.47 39.76 174.158 40.208V36.944C175.438 36.496 176.894 36.16 178.526 35.936C180.19 35.712 181.87 35.6 183.566 35.6C187.982 35.6 191.166 36.736 193.118 39.008C195.07 41.248 196.046 44.608 196.046 49.088C196.046 53.472 195.07 56.8 193.118 59.072C191.166 61.344 188.03 62.48 183.71 62.48ZM215.027 62.48C212.915 62.48 211.123 62.16 209.651 61.52C208.179 60.848 206.835 59.968 205.619 58.88L205.379 62H201.827V36.08H205.763V55.568C206.755 56.592 207.907 57.44 209.219 58.112C210.563 58.784 212.067 59.12 213.731 59.12C215.811 59.12 217.347 58.656 218.339 57.728C219.331 56.8 219.827 55.264 219.827 53.12V36.08H223.763V53.168C223.763 56.176 222.995 58.48 221.459 60.08C219.923 61.68 217.779 62.48 215.027 62.48Z" fill="black"/>
<rect x="3.03027" width="1.51515" height="1.5" fill="#5B60D8"/>
<rect x="6.06055" width="1.51515" height="1.5" fill="#5B60D8"/>
<rect x="9.09082" width="1.51515" height="1.5" fill="#5B60D8"/>
<rect x="12.1211" width="1.51515" height="1.5" fill="#5B60D8"/>
<rect x="15.1514" width="1.51515" height="1.5" fill="#5B60D8"/>
<rect x="18.1816" width="1.51515" height="1.5" fill="#5B60D8"/>
<rect x="21.2119" width="1.51515" height="1.5" fill="#5B60D8"/>
<rect x="24.2422" width="1.51515" height="1.5" fill="#5B60D8"/>
<rect x="27.2725" width="1.51515" height="1.5" fill="#5B60D8"/>
<rect x="30.3032" width="1.51515" height="1.5" fill="#5B60D8"/>
<rect x="33.3335" width="1.51515" height="1.5" fill="#5B60D8"/>
<rect x="36.3638" width="1.51515" height="1.5" fill="#5B60D8"/>
<rect x="39.394" width="1.51515" height="1.5" fill="#5B60D8"/>
<rect x="42.4243" width="1.51515" height="1.5" fill="#5B60D8"/>
<rect x="45.4546" width="1.51515" height="1.5" fill="#5B60D8"/>
<rect x="48.4849" width="1.51515" height="1.5" fill="#5B60D8"/>
<rect x="51.5151" width="1.51515" height="1.5" fill="#5B60D8"/>
<rect width="1.51515" height="1.5" fill="#5B60D8"/>
<rect x="3.03027" y="3" width="1.51515" height="1.5" fill="#5B60D8"/>
<rect x="6.06055" y="3" width="1.51515" height="1.5" fill="#5B60D8"/>
<rect x="9.09082" y="3" width="1.51515" height="1.5" fill="#5B60D8"/>
<rect x="12.1211" y="3" width="1.51515" height="1.5" fill="#5B60D8"/>
<rect x="15.1514" y="3" width="1.51515" height="1.5" fill="#5B60D8"/>
<rect x="18.1816" y="3" width="1.51515" height="1.5" fill="#5B60D8"/>
<rect x="21.2119" y="3" width="1.51515" height="1.5" fill="#5B60D8"/>
<rect x="24.2422" y="3" width="1.51515" height="1.5" fill="#5B60D8"/>
<rect x="27.2725" y="3" width="1.51515" height="1.5" fill="#5B60D8"/>
<rect x="30.3032" y="3" width="1.51515" height="1.5" fill="#5B60D8"/>
<rect x="33.3335" y="3" width="1.51515" height="1.5" fill="#5B60D8"/>
<rect x="36.3638" y="3" width="1.51515" height="1.5" fill="#5B60D8"/>
<rect x="39.394" y="3" width="1.51515" height="1.5" fill="#5B60D8"/>
<rect x="42.4243" y="3" width="1.51515" height="1.5" fill="#5B60D8"/>
<rect x="45.4546" y="3" width="1.51515" height="1.5" fill="#5B60D8"/>
<rect x="48.4849" y="3" width="1.51515" height="1.5" fill="#5B60D8"/>
<rect x="51.5151" y="3" width="1.51515" height="1.5" fill="#5B60D8"/>
<rect y="3" width="1.51515" height="1.5" fill="#5B60D8"/>
<rect x="3.03027" y="6" width="1.51515" height="1.5" fill="#5B60D8"/>
<rect x="6.06055" y="6" width="1.51515" height="1.5" fill="#5B60D8"/>
<rect x="9.09082" y="6" width="1.51515" height="1.5" fill="#5B60D8"/>
<rect x="12.1211" y="6" width="1.51515" height="1.5" fill="#5B60D8"/>
<rect x="15.1514" y="6" width="1.51515" height="1.5" fill="#5B60D8"/>
<rect x="18.1816" y="6" width="1.51515" height="1.5" fill="#5B60D8"/>
<rect x="21.2119" y="6" width="1.51515" height="1.5" fill="#5B60D8"/>
<rect x="24.2422" y="6" width="1.51515" height="1.5" fill="#5B60D8"/>
<rect x="27.2725" y="6" width="1.51515" height="1.5" fill="#5B60D8"/>
<rect x="30.3032" y="6" width="1.51515" height="1.5" fill="#5B60D8"/>
<rect x="33.3335" y="6" width="1.51515" height="1.5" fill="#5B60D8"/>
<rect x="36.3638" y="6" width="1.51515" height="1.5" fill="#5B60D8"/>
<rect x="39.394" y="6" width="1.51515" height="1.5" fill="#5B60D8"/>
<rect x="42.4243" y="6" width="1.51515" height="1.5" fill="#5B60D8"/>
<rect x="45.4546" y="6" width="1.51515" height="1.5" fill="#5B60D8"/>
<rect x="48.4849" y="6" width="1.51515" height="1.5" fill="#5B60D8"/>
<rect x="51.5151" y="6" width="1.51515" height="1.5" fill="#5B60D8"/>
<rect y="6" width="1.51515" height="1.5" fill="#5B60D8"/>
<rect x="3.03027" y="9" width="1.51515" height="1.5" fill="#5B60D8"/>
<rect x="6.06055" y="9" width="1.51515" height="1.5" fill="#5B60D8"/>
<rect x="9.09082" y="9" width="1.51515" height="1.5" fill="#5B60D8"/>
<rect x="12.1211" y="9" width="1.51515" height="1.5" fill="#5B60D8"/>
<rect x="15.1514" y="9" width="1.51515" height="1.5" fill="#5B60D8"/>
<rect x="18.1816" y="9" width="1.51515" height="1.5" fill="#5B60D8"/>
<rect x="21.2119" y="9" width="1.51515" height="1.5" fill="#5B60D8"/>
<rect x="24.2422" y="9" width="1.51515" height="1.5" fill="#5B60D8"/>
<rect x="27.2725" y="9" width="1.51515" height="1.5" fill="#5B60D8"/>
<rect x="30.3032" y="9" width="1.51515" height="1.5" fill="#5B60D8"/>
<rect x="33.3335" y="9" width="1.51515" height="1.5" fill="#5B60D8"/>
<rect x="36.3638" y="9" width="1.51515" height="1.5" fill="#5B60D8"/>
<rect x="39.394" y="9" width="1.51515" height="1.5" fill="#5B60D8"/>
<rect x="42.4243" y="9" width="1.51515" height="1.5" fill="#5B60D8"/>
<rect x="45.4546" y="9" width="1.51515" height="1.5" fill="#5B60D8"/>
<rect x="48.4849" y="9" width="1.51515" height="1.5" fill="#5B60D8"/>
<rect x="51.5151" y="9" width="1.51515" height="1.5" fill="#5B60D8"/>
<rect y="9" width="1.51515" height="1.5" fill="#5B60D8"/>
<rect x="3.03027" y="12" width="1.51515" height="1.5" fill="#5B60D8"/>
<rect x="6.06055" y="12" width="1.51515" height="1.5" fill="#5B60D8"/>
<rect x="9.09082" y="12" width="1.51515" height="1.5" fill="#5B60D8"/>
<rect x="12.1211" y="12" width="1.51515" height="1.5" fill="#5B60D8"/>
<rect x="15.1514" y="12" width="1.51515" height="1.5" fill="#5B60D8"/>
<rect x="18.1816" y="12" width="1.51515" height="1.5" fill="#5B60D8"/>
<rect x="21.2119" y="12" width="1.51515" height="1.5" fill="#5B60D8"/>
<rect x="24.2422" y="12" width="1.51515" height="1.5" fill="#5B60D8"/>
<rect x="27.2725" y="12" width="1.51515" height="1.5" fill="#5B60D8"/>
<rect x="30.3032" y="12" width="1.51515" height="1.5" fill="#5B60D8"/>
<rect x="33.3335" y="12" width="1.51515" height="1.5" fill="#5B60D8"/>
<rect x="36.3638" y="12" width="1.51515" height="1.5" fill="#5B60D8"/>
<rect x="39.394" y="12" width="1.51515" height="1.5" fill="#5B60D8"/>
<rect x="42.4243" y="12" width="1.51515" height="1.5" fill="#5B60D8"/>
<rect x="45.4546" y="12" width="1.51515" height="1.5" fill="#5B60D8"/>
<rect x="48.4849" y="12" width="1.51515" height="1.5" fill="#5B60D8"/>
<rect x="51.5151" y="12" width="1.51515" height="1.5" fill="#5B60D8"/>
<rect y="12" width="1.51515" height="1.5" fill="#5B60D8"/>
<rect x="3.03027" y="15.0002" width="1.51515" height="1.5" fill="#5B60D8"/>
<rect x="6.06055" y="15.0002" width="1.51515" height="1.5" fill="#5B60D8"/>
<rect x="9.09082" y="15.0002" width="1.51515" height="1.5" fill="#5B60D8"/>
<rect x="12.1211" y="15.0002" width="1.51515" height="1.5" fill="#5B60D8"/>
<rect x="15.1514" y="15.0002" width="1.51515" height="1.5" fill="#5B60D8"/>
<rect x="18.1816" y="15.0002" width="1.51515" height="1.5" fill="#5B60D8"/>
<rect x="21.2119" y="15.0002" width="1.51515" height="1.5" fill="#5B60D8"/>
<rect x="24.2422" y="15.0002" width="1.51515" height="1.5" fill="#5B60D8"/>
<rect x="27.2725" y="15.0002" width="1.51515" height="1.5" fill="#5B60D8"/>
<rect x="30.3032" y="15.0002" width="1.51515" height="1.5" fill="#5B60D8"/>
<rect x="33.3335" y="15.0002" width="1.51515" height="1.5" fill="#5B60D8"/>
<rect x="36.3638" y="15.0002" width="1.51515" height="1.5" fill="#5B60D8"/>
<rect x="39.394" y="15.0002" width="1.51515" height="1.5" fill="#5B60D8"/>
<rect x="42.4243" y="15.0002" width="1.51515" height="1.5" fill="#5B60D8"/>
<rect x="45.4546" y="15.0002" width="1.51515" height="1.5" fill="#5B60D8"/>
<rect x="48.4849" y="15.0002" width="1.51515" height="1.5" fill="#5B60D8"/>
<rect x="51.5151" y="15.0002" width="1.51515" height="1.5" fill="#5B60D8"/>
<rect y="15.0002" width="1.51515" height="1.5" fill="#5B60D8"/>
<rect x="3.03027" y="17.9998" width="1.51515" height="1.5" fill="#5B60D8"/>
<rect x="6.06055" y="17.9998" width="1.51515" height="1.5" fill="#5B60D8"/>
<rect x="9.09082" y="17.9998" width="1.51515" height="1.5" fill="#5B60D8"/>
<rect x="12.1211" y="17.9998" width="1.51515" height="1.5" fill="#5B60D8"/>
<rect x="15.1514" y="17.9998" width="1.51515" height="1.5" fill="#5B60D8"/>
<rect x="18.1816" y="17.9998" width="1.51515" height="1.5" fill="#5B60D8"/>
<rect x="21.2119" y="17.9998" width="1.51515" height="1.5" fill="#5B60D8"/>
<rect x="24.2422" y="17.9998" width="1.51515" height="1.5" fill="#5B60D8"/>
<rect x="27.2725" y="17.9998" width="1.51515" height="1.5" fill="#5B60D8"/>
<rect x="30.3032" y="17.9998" width="1.51515" height="1.5" fill="#5B60D8"/>
<rect x="33.3335" y="17.9998" width="1.51515" height="1.5" fill="#5B60D8"/>
<rect x="36.3638" y="17.9998" width="1.51515" height="1.5" fill="#5B60D8"/>
<rect x="39.394" y="17.9998" width="1.51515" height="1.5" fill="#5B60D8"/>
<rect x="42.4243" y="17.9998" width="1.51515" height="1.5" fill="#5B60D8"/>
<rect x="45.4546" y="17.9998" width="1.51515" height="1.5" fill="#5B60D8"/>
<rect x="48.4849" y="17.9998" width="1.51515" height="1.5" fill="#5B60D8"/>
<rect x="51.5151" y="17.9998" width="1.51515" height="1.5" fill="#5B60D8"/>
<rect y="17.9998" width="1.51515" height="1.5" fill="#5B60D8"/>
<rect x="3.03027" y="21" width="1.51515" height="1.5" fill="#5B60D8"/>
<rect x="6.06055" y="21" width="1.51515" height="1.5" fill="#5B60D8"/>
<rect x="9.09082" y="21" width="1.51515" height="1.5" fill="#5B60D8"/>
<rect x="12.1211" y="21" width="1.51515" height="1.5" fill="#5B60D8"/>
<rect x="15.1514" y="21" width="1.51515" height="1.5" fill="#5B60D8"/>
<rect x="18.1816" y="21" width="1.51515" height="1.5" fill="#5B60D8"/>
<rect x="21.2119" y="21" width="1.51515" height="1.5" fill="#5B60D8"/>
<rect x="24.2422" y="21" width="1.51515" height="1.5" fill="#5B60D8"/>
<rect x="27.2725" y="21" width="1.51515" height="1.5" fill="#5B60D8"/>
<rect x="30.3032" y="21" width="1.51515" height="1.5" fill="#5B60D8"/>
<rect x="33.3335" y="21" width="1.51515" height="1.5" fill="#5B60D8"/>
<rect x="36.3638" y="21" width="1.51515" height="1.5" fill="#5B60D8"/>
<rect x="39.394" y="21" width="1.51515" height="1.5" fill="#5B60D8"/>
<rect x="42.4243" y="21" width="1.51515" height="1.5" fill="#5B60D8"/>
<rect x="45.4546" y="21" width="1.51515" height="1.5" fill="#5B60D8"/>
<rect x="48.4849" y="21" width="1.51515" height="1.5" fill="#5B60D8"/>
<rect x="51.5151" y="21" width="1.51515" height="1.5" fill="#5B60D8"/>
<rect y="21" width="1.51515" height="1.5" fill="#5B60D8"/>
<rect x="3.03027" y="24" width="1.51515" height="1.5" fill="#5B60D8"/>
<rect x="6.06055" y="24" width="1.51515" height="1.5" fill="#5B60D8"/>
<rect x="9.09082" y="24" width="1.51515" height="1.5" fill="#5B60D8"/>
<rect x="12.1211" y="24" width="1.51515" height="1.5" fill="#5B60D8"/>
<rect x="15.1514" y="24" width="1.51515" height="1.5" fill="#5B60D8"/>
<rect x="18.1816" y="24" width="1.51515" height="1.5" fill="#5B60D8"/>
<rect x="21.2119" y="24" width="1.51515" height="1.5" fill="#5B60D8"/>
<rect x="24.2422" y="24" width="1.51515" height="1.5" fill="#5B60D8"/>
<rect x="27.2725" y="24" width="1.51515" height="1.5" fill="#5B60D8"/>
<rect x="30.3032" y="24" width="1.51515" height="1.5" fill="#5B60D8"/>
<rect x="33.3335" y="24" width="1.51515" height="1.5" fill="#5B60D8"/>
<rect x="36.3638" y="24" width="1.51515" height="1.5" fill="#5B60D8"/>
<rect x="39.394" y="24" width="1.51515" height="1.5" fill="#5B60D8"/>
<rect x="42.4243" y="24" width="1.51515" height="1.5" fill="#5B60D8"/>
<rect x="45.4546" y="24" width="1.51515" height="1.5" fill="#5B60D8"/>
<rect x="48.4849" y="24" width="1.51515" height="1.5" fill="#5B60D8"/>
<rect x="51.5151" y="24" width="1.51515" height="1.5" fill="#5B60D8"/>
<rect y="24" width="1.51515" height="1.5" fill="#5B60D8"/>
<rect x="3.03027" y="27" width="1.51515" height="1.5" fill="#5B60D8"/>
<rect x="6.06055" y="27" width="1.51515" height="1.5" fill="#5B60D8"/>
<rect x="9.09082" y="27" width="1.51515" height="1.5" fill="#5B60D8"/>
<rect x="12.1211" y="27" width="1.51515" height="1.5" fill="#5B60D8"/>
<rect x="15.1514" y="27" width="1.51515" height="1.5" fill="#5B60D8"/>
<rect x="18.1816" y="27" width="1.51515" height="1.5" fill="#5B60D8"/>
<rect x="21.2119" y="27" width="1.51515" height="1.5" fill="#5B60D8"/>
<rect x="24.2422" y="27" width="1.51515" height="1.5" fill="#5B60D8"/>
<rect x="27.2725" y="27" width="1.51515" height="1.5" fill="#5B60D8"/>
<rect x="30.3032" y="27" width="1.51515" height="1.5" fill="#5B60D8"/>
<rect x="33.3335" y="27" width="1.51515" height="1.5" fill="#5B60D8"/>
<rect x="36.3638" y="27" width="1.51515" height="1.5" fill="#5B60D8"/>
<rect x="39.394" y="27" width="1.51515" height="1.5" fill="#5B60D8"/>
<rect x="42.4243" y="27" width="1.51515" height="1.5" fill="#5B60D8"/>
<rect x="45.4546" y="27" width="1.51515" height="1.5" fill="#5B60D8"/>
<rect x="48.4849" y="27" width="1.51515" height="1.5" fill="#5B60D8"/>
<rect x="51.5151" y="27" width="1.51515" height="1.5" fill="#5B60D8"/>
<rect y="27" width="1.51515" height="1.5" fill="#5B60D8"/>
<rect x="3.03027" y="30" width="1.51515" height="1.5" fill="#5B60D8"/>
<rect x="6.06055" y="30" width="1.51515" height="1.5" fill="#5B60D8"/>
<rect x="9.09082" y="30" width="1.51515" height="1.5" fill="#5B60D8"/>
<rect x="12.1211" y="30" width="1.51515" height="1.5" fill="#5B60D8"/>
<rect x="15.1514" y="30" width="1.51515" height="1.5" fill="#5B60D8"/>
<rect x="18.1816" y="30" width="1.51515" height="1.5" fill="#5B60D8"/>
<rect x="21.2119" y="30" width="1.51515" height="1.5" fill="#5B60D8"/>
<rect x="24.2422" y="30" width="1.51515" height="1.5" fill="#5B60D8"/>
<rect x="27.2725" y="30" width="1.51515" height="1.5" fill="#5B60D8"/>
<rect x="30.3032" y="30" width="1.51515" height="1.5" fill="#5B60D8"/>
<rect x="33.3335" y="30" width="1.51515" height="1.5" fill="#5B60D8"/>
<rect x="36.3638" y="30" width="1.51515" height="1.5" fill="#5B60D8"/>
<rect x="39.394" y="30" width="1.51515" height="1.5" fill="#5B60D8"/>
<rect x="42.4243" y="30" width="1.51515" height="1.5" fill="#5B60D8"/>
<rect x="45.4546" y="30" width="1.51515" height="1.5" fill="#5B60D8"/>
<rect x="48.4849" y="30" width="1.51515" height="1.5" fill="#5B60D8"/>
<rect x="51.5151" y="30" width="1.51515" height="1.5" fill="#5B60D8"/>
<rect y="30" width="1.51515" height="1.5" fill="#5B60D8"/>
<rect x="3.03027" y="33.0002" width="1.51515" height="1.5" fill="#5B60D8"/>
<rect x="6.06055" y="33.0002" width="1.51515" height="1.5" fill="#5B60D8"/>
<rect x="9.09082" y="33.0002" width="1.51515" height="1.5" fill="#5B60D8"/>
<rect x="12.1211" y="33.0002" width="1.51515" height="1.5" fill="#5B60D8"/>
<rect x="15.1514" y="33.0002" width="1.51515" height="1.5" fill="#5B60D8"/>
<rect x="18.1816" y="33.0002" width="1.51515" height="1.5" fill="#5B60D8"/>
<rect x="21.2119" y="33.0002" width="1.51515" height="1.5" fill="#5B60D8"/>
<rect x="24.2422" y="33.0002" width="1.51515" height="1.5" fill="#5B60D8"/>
<rect x="27.2725" y="33.0002" width="1.51515" height="1.5" fill="#5B60D8"/>
<rect x="30.3032" y="33.0002" width="1.51515" height="1.5" fill="#5B60D8"/>
<rect x="33.3335" y="33.0002" width="1.51515" height="1.5" fill="#5B60D8"/>
<rect x="36.3638" y="33.0002" width="1.51515" height="1.5" fill="#5B60D8"/>
<rect x="39.394" y="33.0002" width="1.51515" height="1.5" fill="#5B60D8"/>
<rect x="42.4243" y="33.0002" width="1.51515" height="1.5" fill="#5B60D8"/>
<rect x="45.4546" y="33.0002" width="1.51515" height="1.5" fill="#5B60D8"/>
<rect x="48.4849" y="33.0002" width="1.51515" height="1.5" fill="#5B60D8"/>
<rect x="51.5151" y="33.0002" width="1.51515" height="1.5" fill="#5B60D8"/>
<rect y="33.0002" width="1.51515" height="1.5" fill="#5B60D8"/>
<rect x="3.03027" y="35.9998" width="1.51515" height="1.5" fill="#5B60D8"/>
<rect x="6.06055" y="35.9998" width="1.51515" height="1.5" fill="#5B60D8"/>
<rect x="9.09082" y="35.9998" width="1.51515" height="1.5" fill="#5B60D8"/>
<rect x="12.1211" y="35.9998" width="1.51515" height="1.5" fill="#5B60D8"/>
<rect x="15.1514" y="35.9998" width="1.51515" height="1.5" fill="#5B60D8"/>
<rect x="18.1816" y="35.9998" width="1.51515" height="1.5" fill="#5B60D8"/>
<rect x="21.2119" y="35.9998" width="1.51515" height="1.5" fill="#5B60D8"/>
<rect x="24.2422" y="35.9998" width="1.51515" height="1.5" fill="#5B60D8"/>
<rect x="27.2725" y="35.9998" width="1.51515" height="1.5" fill="#5B60D8"/>
<rect x="30.3032" y="35.9998" width="1.51515" height="1.5" fill="#5B60D8"/>
<rect x="33.3335" y="35.9998" width="1.51515" height="1.5" fill="#5B60D8"/>
<rect x="36.3638" y="35.9998" width="1.51515" height="1.5" fill="#5B60D8"/>
<rect x="39.394" y="35.9998" width="1.51515" height="1.5" fill="#5B60D8"/>
<rect x="42.4243" y="35.9998" width="1.51515" height="1.5" fill="#5B60D8"/>
<rect x="45.4546" y="35.9998" width="1.51515" height="1.5" fill="#5B60D8"/>
<rect x="48.4849" y="35.9998" width="1.51515" height="1.5" fill="#5B60D8"/>
<rect x="51.5151" y="35.9998" width="1.51515" height="1.5" fill="#5B60D8"/>
<rect y="35.9998" width="1.51515" height="1.5" fill="#5B60D8"/>
<rect x="3.03027" y="39.0002" width="1.51515" height="1.5" fill="#5B60D8"/>
<rect x="6.06055" y="39.0002" width="1.51515" height="1.5" fill="#5B60D8"/>
<rect x="9.09082" y="39.0002" width="1.51515" height="1.5" fill="#5B60D8"/>
<rect x="12.1211" y="39.0002" width="1.51515" height="1.5" fill="#5B60D8"/>
<rect x="15.1514" y="39.0002" width="1.51515" height="1.5" fill="#5B60D8"/>
<rect x="18.1816" y="39.0002" width="1.51515" height="1.5" fill="#5B60D8"/>
<rect x="21.2119" y="39.0002" width="1.51515" height="1.5" fill="#5B60D8"/>
<rect x="24.2422" y="39.0002" width="1.51515" height="1.5" fill="#5B60D8"/>
<rect x="27.2725" y="39.0002" width="1.51515" height="1.5" fill="#5B60D8"/>
<rect x="30.3032" y="39.0002" width="1.51515" height="1.5" fill="#5B60D8"/>
<rect x="33.3335" y="39.0002" width="1.51515" height="1.5" fill="#5B60D8"/>
<rect x="36.3638" y="39.0002" width="1.51515" height="1.5" fill="#5B60D8"/>
<rect x="39.394" y="39.0002" width="1.51515" height="1.5" fill="#5B60D8"/>
<rect x="42.4243" y="39.0002" width="1.51515" height="1.5" fill="#5B60D8"/>
<rect x="45.4546" y="39.0002" width="1.51515" height="1.5" fill="#5B60D8"/>
<rect x="48.4849" y="39.0002" width="1.51515" height="1.5" fill="#5B60D8"/>
<rect x="51.5151" y="39.0002" width="1.51515" height="1.5" fill="#5B60D8"/>
<rect y="39.0002" width="1.51515" height="1.5" fill="#5B60D8"/>
<rect x="3.03027" y="42" width="1.51515" height="1.5" fill="#5B60D8"/>
<rect x="6.06055" y="42" width="1.51515" height="1.5" fill="#5B60D8"/>
<rect x="9.09082" y="42" width="1.51515" height="1.5" fill="#5B60D8"/>
<rect x="12.1211" y="42" width="1.51515" height="1.5" fill="#5B60D8"/>
<rect x="15.1514" y="42" width="1.51515" height="1.5" fill="#5B60D8"/>
<rect x="18.1816" y="42" width="1.51515" height="1.5" fill="#5B60D8"/>
<rect x="21.2119" y="42" width="1.51515" height="1.5" fill="#5B60D8"/>
<rect x="24.2422" y="42" width="1.51515" height="1.5" fill="#5B60D8"/>
<rect x="27.2725" y="42" width="1.51515" height="1.5" fill="#5B60D8"/>
<rect x="30.3032" y="42" width="1.51515" height="1.5" fill="#5B60D8"/>
<rect x="33.3335" y="42" width="1.51515" height="1.5" fill="#5B60D8"/>
<rect x="36.3638" y="42" width="1.51515" height="1.5" fill="#5B60D8"/>
<rect x="39.394" y="42" width="1.51515" height="1.5" fill="#5B60D8"/>
<rect x="42.4243" y="42" width="1.51515" height="1.5" fill="#5B60D8"/>
<rect x="45.4546" y="42" width="1.51515" height="1.5" fill="#5B60D8"/>
<rect x="48.4849" y="42" width="1.51515" height="1.5" fill="#5B60D8"/>
<rect x="51.5151" y="42" width="1.51515" height="1.5" fill="#5B60D8"/>
<rect y="42" width="1.51515" height="1.5" fill="#5B60D8"/>
<rect x="3.03027" y="45" width="1.51515" height="1.5" fill="#5B60D8"/>
<rect x="6.06055" y="45" width="1.51515" height="1.5" fill="#5B60D8"/>
<rect x="9.09082" y="45" width="1.51515" height="1.5" fill="#5B60D8"/>
<rect x="12.1211" y="45" width="1.51515" height="1.5" fill="#5B60D8"/>
<rect x="15.1514" y="45" width="1.51515" height="1.5" fill="#5B60D8"/>
<rect x="18.1816" y="45" width="1.51515" height="1.5" fill="#5B60D8"/>
<rect x="21.2119" y="45" width="1.51515" height="1.5" fill="#5B60D8"/>
<rect x="24.2422" y="45" width="1.51515" height="1.5" fill="#5B60D8"/>
<rect x="27.2725" y="45" width="1.51515" height="1.5" fill="#5B60D8"/>
<rect x="30.3032" y="45" width="1.51515" height="1.5" fill="#5B60D8"/>
<rect x="33.3335" y="45" width="1.51515" height="1.5" fill="#5B60D8"/>
<rect x="36.3638" y="45" width="1.51515" height="1.5" fill="#5B60D8"/>
<rect x="39.394" y="45" width="1.51515" height="1.5" fill="#5B60D8"/>
<rect x="42.4243" y="45" width="1.51515" height="1.5" fill="#5B60D8"/>
<rect x="45.4546" y="45" width="1.51515" height="1.5" fill="#5B60D8"/>
<rect x="48.4849" y="45" width="1.51515" height="1.5" fill="#5B60D8"/>
<rect x="51.5151" y="45" width="1.51515" height="1.5" fill="#5B60D8"/>
<rect y="45" width="1.51515" height="1.5" fill="#5B60D8"/>
<rect x="3.03027" y="47.9998" width="1.51515" height="1.5" fill="#5B60D8"/>
<rect x="6.06055" y="47.9998" width="1.51515" height="1.5" fill="#5B60D8"/>
<rect x="9.09082" y="47.9998" width="1.51515" height="1.5" fill="#5B60D8"/>
<rect x="12.1211" y="47.9998" width="1.51515" height="1.5" fill="#5B60D8"/>
<rect x="15.1514" y="47.9998" width="1.51515" height="1.5" fill="#5B60D8"/>
<rect x="18.1816" y="47.9998" width="1.51515" height="1.5" fill="#5B60D8"/>
<rect x="21.2119" y="47.9998" width="1.51515" height="1.5" fill="#5B60D8"/>
<rect x="24.2422" y="47.9998" width="1.51515" height="1.5" fill="#5B60D8"/>
<rect x="27.2725" y="47.9998" width="1.51515" height="1.5" fill="#5B60D8"/>
<rect x="30.3032" y="47.9998" width="1.51515" height="1.5" fill="#5B60D8"/>
<rect x="33.3335" y="47.9998" width="1.51515" height="1.5" fill="#5B60D8"/>
<rect x="36.3638" y="47.9998" width="1.51515" height="1.5" fill="#5B60D8"/>
<rect x="39.394" y="47.9998" width="1.51515" height="1.5" fill="#5B60D8"/>
<rect x="42.4243" y="47.9998" width="1.51515" height="1.5" fill="#5B60D8"/>
<rect x="45.4546" y="47.9998" width="1.51515" height="1.5" fill="#5B60D8"/>
<rect x="48.4849" y="47.9998" width="1.51515" height="1.5" fill="#5B60D8"/>
<rect x="51.5151" y="47.9998" width="1.51515" height="1.5" fill="#5B60D8"/>
<rect y="47.9998" width="1.51515" height="1.5" fill="#5B60D8"/>
<rect x="3.03027" y="51" width="1.51515" height="1.5" fill="#5B60D8"/>
<rect x="6.06055" y="51" width="1.51515" height="1.5" fill="#5B60D8"/>
<rect x="9.09082" y="51" width="1.51515" height="1.5" fill="#5B60D8"/>
<rect x="12.1211" y="51" width="1.51515" height="1.5" fill="#5B60D8"/>
<rect x="15.1514" y="51" width="1.51515" height="1.5" fill="#5B60D8"/>
<rect x="18.1816" y="51" width="1.51515" height="1.5" fill="#5B60D8"/>
<rect x="21.2119" y="51" width="1.51515" height="1.5" fill="#5B60D8"/>
<rect x="24.2422" y="51" width="1.51515" height="1.5" fill="#5B60D8"/>
<rect x="27.2725" y="51" width="1.51515" height="1.5" fill="#5B60D8"/>
<rect x="30.3032" y="51" width="1.51515" height="1.5" fill="#5B60D8"/>
<rect x="33.3335" y="51" width="1.51515" height="1.5" fill="#5B60D8"/>
<rect x="36.3638" y="51" width="1.51515" height="1.5" fill="#5B60D8"/>
<rect x="39.394" y="51" width="1.51515" height="1.5" fill="#5B60D8"/>
<rect x="42.4243" y="51" width="1.51515" height="1.5" fill="#5B60D8"/>
<rect x="45.4546" y="51" width="1.51515" height="1.5" fill="#5B60D8"/>
<rect x="48.4849" y="51" width="1.51515" height="1.5" fill="#5B60D8"/>
<rect x="51.5151" y="51" width="1.51515" height="1.5" fill="#5B60D8"/>
<rect y="51" width="1.51515" height="1.5" fill="#5B60D8"/>
<ellipse cx="201.515" cy="82.5" rx="6.0606" ry="6" fill="#5B68D8"/>
</svg>
